<mxfile host="app.diagrams.net" modified="2023-10-24T12:03:30.731Z" agent="Mozilla/5.0 (Windows NT 10.0; Win64; x64) AppleWebKit/537.36 (KHTML, like Gecko) Chrome/109.0.0.0 Safari/537.36" etag="43vrySpm1_PQldyXocHc" version="22.0.6" type="device">
  <diagram name="Página-1" id="OTHYHd2fPoX0CU25HWiH">
    <mxGraphModel dx="1290" dy="696" grid="1" gridSize="10" guides="1" tooltips="1" connect="1" arrows="1" fold="1" page="1" pageScale="1" pageWidth="827" pageHeight="1169" math="0" shadow="0">
      <root>
        <mxCell id="0" />
        <mxCell id="1" parent="0" />
        <mxCell id="qWz3FeGwX53EBjCBNTv4-10" value="" style="rounded=0;whiteSpace=wrap;html=1;" parent="1" vertex="1">
          <mxGeometry x="380" y="60" width="830" height="490" as="geometry" />
        </mxCell>
        <mxCell id="qWz3FeGwX53EBjCBNTv4-7" value="Usuário" style="shape=umlActor;verticalLabelPosition=bottom;verticalAlign=top;html=1;" parent="1" vertex="1">
          <mxGeometry x="130" y="250" width="30" height="60" as="geometry" />
        </mxCell>
        <mxCell id="qWz3FeGwX53EBjCBNTv4-11" value="Adicionar jogos ao carrinho" style="ellipse;whiteSpace=wrap;html=1;" parent="1" vertex="1">
          <mxGeometry x="660" y="150" width="80" height="50" as="geometry" />
        </mxCell>
        <mxCell id="qWz3FeGwX53EBjCBNTv4-13" value="Finalizar compra" style="ellipse;whiteSpace=wrap;html=1;" parent="1" vertex="1">
          <mxGeometry x="1000" y="160" width="80" height="50" as="geometry" />
        </mxCell>
        <mxCell id="qWz3FeGwX53EBjCBNTv4-15" value="Acessar&lt;br&gt;&quot;Games&quot;" style="ellipse;whiteSpace=wrap;html=1;" parent="1" vertex="1">
          <mxGeometry x="400" y="150" width="80" height="50" as="geometry" />
        </mxCell>
        <mxCell id="qWz3FeGwX53EBjCBNTv4-17" value="Log-in" style="ellipse;whiteSpace=wrap;html=1;" parent="1" vertex="1">
          <mxGeometry x="1000" y="410" width="80" height="50" as="geometry" />
        </mxCell>
        <mxCell id="qWz3FeGwX53EBjCBNTv4-22" value="&lt;font style=&quot;font-size: 12px;&quot;&gt;Limpar carrinho&lt;/font&gt;" style="ellipse;whiteSpace=wrap;html=1;" parent="1" vertex="1">
          <mxGeometry x="880" y="290" width="80" height="50" as="geometry" />
        </mxCell>
        <mxCell id="qWz3FeGwX53EBjCBNTv4-23" value="&amp;lt;&amp;lt;extends&amp;gt;&amp;gt;" style="endArrow=open;endSize=12;html=1;rounded=0;exitX=1;exitY=0.5;exitDx=0;exitDy=0;entryX=0;entryY=0.5;entryDx=0;entryDy=0;" parent="1" source="4O6SfjmouDbTsM4zHaP9-1" target="4O6SfjmouDbTsM4zHaP9-6" edge="1">
          <mxGeometry width="160" relative="1" as="geometry">
            <mxPoint x="601.27" y="210" as="sourcePoint" />
            <mxPoint x="540.0043321583789" y="222.3918326221766" as="targetPoint" />
          </mxGeometry>
        </mxCell>
        <mxCell id="qWz3FeGwX53EBjCBNTv4-24" value="&amp;lt;&amp;lt;extends&amp;gt;&amp;gt;" style="endArrow=open;endSize=12;html=1;rounded=0;exitX=1;exitY=0.5;exitDx=0;exitDy=0;entryX=0;entryY=0.5;entryDx=0;entryDy=0;" parent="1" source="qWz3FeGwX53EBjCBNTv4-15" target="qWz3FeGwX53EBjCBNTv4-11" edge="1">
          <mxGeometry width="160" relative="1" as="geometry">
            <mxPoint x="528" y="243" as="sourcePoint" />
            <mxPoint x="479" y="213" as="targetPoint" />
          </mxGeometry>
        </mxCell>
        <mxCell id="qWz3FeGwX53EBjCBNTv4-25" value="&amp;lt;&amp;lt;depends&amp;gt;&amp;gt;" style="endArrow=open;endSize=12;dashed=1;html=1;rounded=0;entryX=1;entryY=0.5;entryDx=0;entryDy=0;exitX=0;exitY=0.5;exitDx=0;exitDy=0;" parent="1" source="qWz3FeGwX53EBjCBNTv4-13" target="qWz3FeGwX53EBjCBNTv4-11" edge="1">
          <mxGeometry width="160" relative="1" as="geometry">
            <mxPoint x="640" y="325" as="sourcePoint" />
            <mxPoint x="490" y="325" as="targetPoint" />
          </mxGeometry>
        </mxCell>
        <mxCell id="qWz3FeGwX53EBjCBNTv4-26" value="&amp;lt;&amp;lt;extends&amp;gt;&amp;gt;" style="endArrow=open;endSize=12;html=1;rounded=0;exitX=1;exitY=0.5;exitDx=0;exitDy=0;entryX=0;entryY=0.5;entryDx=0;entryDy=0;" parent="1" source="4O6SfjmouDbTsM4zHaP9-3" target="qWz3FeGwX53EBjCBNTv4-20" edge="1">
          <mxGeometry width="160" relative="1" as="geometry">
            <mxPoint x="671" y="297" as="sourcePoint" />
            <mxPoint x="599" y="273" as="targetPoint" />
          </mxGeometry>
        </mxCell>
        <mxCell id="qWz3FeGwX53EBjCBNTv4-27" value="&amp;lt;&amp;lt;depends&amp;gt;&amp;gt;" style="endArrow=open;endSize=12;html=1;rounded=0;exitX=0;exitY=0.5;exitDx=0;exitDy=0;entryX=1;entryY=1;entryDx=0;entryDy=0;dashed=1;" parent="1" source="qWz3FeGwX53EBjCBNTv4-22" target="qWz3FeGwX53EBjCBNTv4-11" edge="1">
          <mxGeometry width="160" relative="1" as="geometry">
            <mxPoint x="660" y="315" as="sourcePoint" />
            <mxPoint x="490" y="315" as="targetPoint" />
          </mxGeometry>
        </mxCell>
        <mxCell id="4O6SfjmouDbTsM4zHaP9-1" value="Acessar&lt;br&gt;&quot;Softwares&quot;" style="ellipse;whiteSpace=wrap;html=1;" vertex="1" parent="1">
          <mxGeometry x="400" y="210" width="80" height="50" as="geometry" />
        </mxCell>
        <mxCell id="4O6SfjmouDbTsM4zHaP9-2" value="Acessar&lt;br&gt;&quot;News&quot;" style="ellipse;whiteSpace=wrap;html=1;" vertex="1" parent="1">
          <mxGeometry x="400" y="270" width="80" height="50" as="geometry" />
        </mxCell>
        <mxCell id="4O6SfjmouDbTsM4zHaP9-3" value="Acessar&lt;br&gt;&quot;Community&quot;" style="ellipse;whiteSpace=wrap;html=1;" vertex="1" parent="1">
          <mxGeometry x="400" y="340" width="80" height="50" as="geometry" />
        </mxCell>
        <mxCell id="4O6SfjmouDbTsM4zHaP9-4" value="Acessar&lt;br&gt;&quot;Sign In&quot;" style="ellipse;whiteSpace=wrap;html=1;" vertex="1" parent="1">
          <mxGeometry x="400" y="410" width="80" height="50" as="geometry" />
        </mxCell>
        <mxCell id="4O6SfjmouDbTsM4zHaP9-5" value="Acessar&lt;br&gt;&quot;Cart&quot;" style="ellipse;whiteSpace=wrap;html=1;" vertex="1" parent="1">
          <mxGeometry x="400" y="475" width="80" height="50" as="geometry" />
        </mxCell>
        <mxCell id="4O6SfjmouDbTsM4zHaP9-6" value="Adicionar softwares ao carrinho" style="ellipse;whiteSpace=wrap;html=1;" vertex="1" parent="1">
          <mxGeometry x="660" y="210" width="80" height="50" as="geometry" />
        </mxCell>
        <mxCell id="4O6SfjmouDbTsM4zHaP9-9" value="&amp;lt;&amp;lt;extends&amp;gt;&amp;gt;" style="endArrow=open;endSize=12;html=1;rounded=0;entryX=0.062;entryY=0.686;entryDx=0;entryDy=0;entryPerimeter=0;" edge="1" parent="1" target="qWz3FeGwX53EBjCBNTv4-22">
          <mxGeometry width="160" relative="1" as="geometry">
            <mxPoint x="480" y="500" as="sourcePoint" />
            <mxPoint x="560" y="375" as="targetPoint" />
          </mxGeometry>
        </mxCell>
        <mxCell id="4O6SfjmouDbTsM4zHaP9-10" value="&amp;lt;&amp;lt;depends&amp;gt;&amp;gt;" style="endArrow=open;endSize=12;dashed=1;html=1;rounded=0;entryX=1;entryY=0.5;entryDx=0;entryDy=0;exitX=0;exitY=0.5;exitDx=0;exitDy=0;" edge="1" parent="1" source="qWz3FeGwX53EBjCBNTv4-13" target="4O6SfjmouDbTsM4zHaP9-6">
          <mxGeometry width="160" relative="1" as="geometry">
            <mxPoint x="629" y="202" as="sourcePoint" />
            <mxPoint x="721" y="358" as="targetPoint" />
          </mxGeometry>
        </mxCell>
        <mxCell id="4O6SfjmouDbTsM4zHaP9-11" value="&amp;lt;&amp;lt;extends&amp;gt;.&lt;br&gt;" style="endArrow=open;endSize=12;html=1;rounded=0;entryX=0;entryY=0.5;entryDx=0;entryDy=0;exitX=1;exitY=0.5;exitDx=0;exitDy=0;" edge="1" parent="1" source="4O6SfjmouDbTsM4zHaP9-4" target="qWz3FeGwX53EBjCBNTv4-17">
          <mxGeometry width="160" relative="1" as="geometry">
            <mxPoint x="490" y="510" as="sourcePoint" />
            <mxPoint x="721" y="392" as="targetPoint" />
          </mxGeometry>
        </mxCell>
        <mxCell id="4O6SfjmouDbTsM4zHaP9-12" value="&amp;lt;&amp;lt;depends&amp;gt;&amp;gt;" style="endArrow=open;endSize=12;dashed=1;html=1;rounded=0;entryX=0.5;entryY=0;entryDx=0;entryDy=0;exitX=0.5;exitY=1;exitDx=0;exitDy=0;" edge="1" parent="1" source="qWz3FeGwX53EBjCBNTv4-13" target="qWz3FeGwX53EBjCBNTv4-17">
          <mxGeometry width="160" relative="1" as="geometry">
            <mxPoint x="490" y="445" as="sourcePoint" />
            <mxPoint x="870" y="445" as="targetPoint" />
          </mxGeometry>
        </mxCell>
        <mxCell id="4O6SfjmouDbTsM4zHaP9-13" value="&amp;lt;&amp;lt;extends&amp;gt;." style="endArrow=open;endSize=12;html=1;rounded=0;exitX=1;exitY=0.5;exitDx=0;exitDy=0;entryX=0;entryY=0.5;entryDx=0;entryDy=0;" edge="1" parent="1" source="4O6SfjmouDbTsM4zHaP9-4" target="4O6SfjmouDbTsM4zHaP9-14">
          <mxGeometry width="160" relative="1" as="geometry">
            <mxPoint x="490" y="445" as="sourcePoint" />
            <mxPoint x="870" y="445" as="targetPoint" />
          </mxGeometry>
        </mxCell>
        <mxCell id="4O6SfjmouDbTsM4zHaP9-14" value="Registrar" style="ellipse;whiteSpace=wrap;html=1;" vertex="1" parent="1">
          <mxGeometry x="910" y="480" width="80" height="50" as="geometry" />
        </mxCell>
        <mxCell id="4O6SfjmouDbTsM4zHaP9-15" value="Acessar&lt;br&gt;&quot;Main Page&quot;" style="ellipse;whiteSpace=wrap;html=1;" vertex="1" parent="1">
          <mxGeometry x="400" y="80" width="80" height="50" as="geometry" />
        </mxCell>
        <mxCell id="4O6SfjmouDbTsM4zHaP9-16" value="&amp;lt;&amp;lt;extends&amp;gt;&amp;gt;" style="endArrow=open;endSize=12;html=1;rounded=0;exitX=1;exitY=0.5;exitDx=0;exitDy=0;" edge="1" parent="1" source="4O6SfjmouDbTsM4zHaP9-15" target="4O6SfjmouDbTsM4zHaP9-17">
          <mxGeometry width="160" relative="1" as="geometry">
            <mxPoint x="490" y="185" as="sourcePoint" />
            <mxPoint x="560" y="185" as="targetPoint" />
          </mxGeometry>
        </mxCell>
        <mxCell id="4O6SfjmouDbTsM4zHaP9-17" value="Passar Display de Jogos" style="ellipse;whiteSpace=wrap;html=1;" vertex="1" parent="1">
          <mxGeometry x="660" y="80" width="80" height="50" as="geometry" />
        </mxCell>
        <mxCell id="4O6SfjmouDbTsM4zHaP9-20" value="Filtrar Loja com Tags" style="ellipse;whiteSpace=wrap;html=1;" vertex="1" parent="1">
          <mxGeometry x="540" y="260" width="80" height="50" as="geometry" />
        </mxCell>
        <mxCell id="4O6SfjmouDbTsM4zHaP9-21" value="&amp;lt;&amp;lt;extends&amp;gt;&amp;gt;" style="endArrow=open;endSize=12;html=1;rounded=0;exitX=1;exitY=1;exitDx=0;exitDy=0;entryX=0;entryY=0;entryDx=0;entryDy=0;" edge="1" parent="1" source="4O6SfjmouDbTsM4zHaP9-1" target="4O6SfjmouDbTsM4zHaP9-20">
          <mxGeometry width="160" relative="1" as="geometry">
            <mxPoint x="490" y="245" as="sourcePoint" />
            <mxPoint x="560" y="245" as="targetPoint" />
          </mxGeometry>
        </mxCell>
        <mxCell id="4O6SfjmouDbTsM4zHaP9-22" value="&amp;lt;&amp;lt;extends&amp;gt;&amp;gt;" style="endArrow=open;endSize=12;html=1;rounded=0;exitX=1;exitY=0.5;exitDx=0;exitDy=0;entryX=0;entryY=0;entryDx=0;entryDy=0;" edge="1" parent="1" source="qWz3FeGwX53EBjCBNTv4-15" target="4O6SfjmouDbTsM4zHaP9-20">
          <mxGeometry width="160" relative="1" as="geometry">
            <mxPoint x="490" y="185" as="sourcePoint" />
            <mxPoint x="560" y="185" as="targetPoint" />
          </mxGeometry>
        </mxCell>
        <mxCell id="4O6SfjmouDbTsM4zHaP9-23" value="" style="endArrow=none;html=1;rounded=0;exitX=0;exitY=0.5;exitDx=0;exitDy=0;entryX=0.5;entryY=0.5;entryDx=0;entryDy=0;entryPerimeter=0;" edge="1" parent="1" source="4O6SfjmouDbTsM4zHaP9-15" target="qWz3FeGwX53EBjCBNTv4-7">
          <mxGeometry width="50" height="50" relative="1" as="geometry">
            <mxPoint x="480" y="330" as="sourcePoint" />
            <mxPoint x="530" y="280" as="targetPoint" />
          </mxGeometry>
        </mxCell>
        <mxCell id="4O6SfjmouDbTsM4zHaP9-24" value="" style="endArrow=none;html=1;rounded=0;exitX=0;exitY=0.5;exitDx=0;exitDy=0;entryX=0.5;entryY=0.5;entryDx=0;entryDy=0;entryPerimeter=0;" edge="1" parent="1" source="qWz3FeGwX53EBjCBNTv4-15" target="qWz3FeGwX53EBjCBNTv4-7">
          <mxGeometry width="50" height="50" relative="1" as="geometry">
            <mxPoint x="410" y="115" as="sourcePoint" />
            <mxPoint x="320" y="150" as="targetPoint" />
          </mxGeometry>
        </mxCell>
        <mxCell id="4O6SfjmouDbTsM4zHaP9-25" value="" style="endArrow=none;html=1;rounded=0;exitX=0;exitY=0.5;exitDx=0;exitDy=0;entryX=0.5;entryY=0.5;entryDx=0;entryDy=0;entryPerimeter=0;" edge="1" parent="1" source="4O6SfjmouDbTsM4zHaP9-1" target="qWz3FeGwX53EBjCBNTv4-7">
          <mxGeometry width="50" height="50" relative="1" as="geometry">
            <mxPoint x="410" y="185" as="sourcePoint" />
            <mxPoint x="340" y="150" as="targetPoint" />
          </mxGeometry>
        </mxCell>
        <mxCell id="4O6SfjmouDbTsM4zHaP9-26" value="" style="endArrow=none;html=1;rounded=0;exitX=0;exitY=0.5;exitDx=0;exitDy=0;entryX=0.5;entryY=0.5;entryDx=0;entryDy=0;entryPerimeter=0;" edge="1" parent="1" source="4O6SfjmouDbTsM4zHaP9-2" target="qWz3FeGwX53EBjCBNTv4-7">
          <mxGeometry width="50" height="50" relative="1" as="geometry">
            <mxPoint x="410" y="245" as="sourcePoint" />
            <mxPoint x="325" y="160" as="targetPoint" />
          </mxGeometry>
        </mxCell>
        <mxCell id="4O6SfjmouDbTsM4zHaP9-27" value="" style="endArrow=none;html=1;rounded=0;exitX=0;exitY=0.5;exitDx=0;exitDy=0;entryX=0.5;entryY=0.5;entryDx=0;entryDy=0;entryPerimeter=0;" edge="1" parent="1" source="4O6SfjmouDbTsM4zHaP9-3" target="qWz3FeGwX53EBjCBNTv4-7">
          <mxGeometry width="50" height="50" relative="1" as="geometry">
            <mxPoint x="410" y="305" as="sourcePoint" />
            <mxPoint x="325" y="160" as="targetPoint" />
          </mxGeometry>
        </mxCell>
        <mxCell id="4O6SfjmouDbTsM4zHaP9-28" value="" style="endArrow=none;html=1;rounded=0;exitX=0;exitY=0.5;exitDx=0;exitDy=0;entryX=0.5;entryY=0.5;entryDx=0;entryDy=0;entryPerimeter=0;" edge="1" parent="1" source="4O6SfjmouDbTsM4zHaP9-4" target="qWz3FeGwX53EBjCBNTv4-7">
          <mxGeometry width="50" height="50" relative="1" as="geometry">
            <mxPoint x="410" y="375" as="sourcePoint" />
            <mxPoint x="255" y="310" as="targetPoint" />
          </mxGeometry>
        </mxCell>
        <mxCell id="4O6SfjmouDbTsM4zHaP9-29" value="" style="endArrow=none;html=1;rounded=0;exitX=0;exitY=0.5;exitDx=0;exitDy=0;entryX=0.5;entryY=0.5;entryDx=0;entryDy=0;entryPerimeter=0;" edge="1" parent="1" source="4O6SfjmouDbTsM4zHaP9-5" target="qWz3FeGwX53EBjCBNTv4-7">
          <mxGeometry width="50" height="50" relative="1" as="geometry">
            <mxPoint x="410" y="445" as="sourcePoint" />
            <mxPoint x="155" y="290" as="targetPoint" />
          </mxGeometry>
        </mxCell>
        <mxCell id="4O6SfjmouDbTsM4zHaP9-30" value="&amp;lt;&amp;lt;depends&amp;gt;&amp;gt;" style="endArrow=open;endSize=12;dashed=1;html=1;rounded=0;entryX=0.035;entryY=0.337;entryDx=0;entryDy=0;exitX=1;exitY=0.5;exitDx=0;exitDy=0;entryPerimeter=0;" edge="1" parent="1" source="qWz3FeGwX53EBjCBNTv4-20" target="qWz3FeGwX53EBjCBNTv4-17">
          <mxGeometry width="160" relative="1" as="geometry">
            <mxPoint x="791" y="202" as="sourcePoint" />
            <mxPoint x="640" y="245" as="targetPoint" />
          </mxGeometry>
        </mxCell>
        <mxCell id="4O6SfjmouDbTsM4zHaP9-47" value="&lt;b&gt;WEBSITE&lt;br&gt;E-COMMERCE&lt;br&gt;&lt;/b&gt;" style="text;html=1;strokeColor=none;fillColor=none;align=center;verticalAlign=middle;whiteSpace=wrap;rounded=0;" vertex="1" parent="1">
          <mxGeometry x="1100" y="500" width="100" height="30" as="geometry" />
        </mxCell>
        <mxCell id="4O6SfjmouDbTsM4zHaP9-48" value="&amp;lt;&amp;lt;extends&amp;gt;&amp;gt;" style="endArrow=open;endSize=12;html=1;rounded=0;exitX=1;exitY=0.5;exitDx=0;exitDy=0;" edge="1" parent="1" source="4O6SfjmouDbTsM4zHaP9-5" target="qWz3FeGwX53EBjCBNTv4-13">
          <mxGeometry width="160" relative="1" as="geometry">
            <mxPoint x="490" y="445" as="sourcePoint" />
            <mxPoint x="980" y="445" as="targetPoint" />
          </mxGeometry>
        </mxCell>
        <mxCell id="4O6SfjmouDbTsM4zHaP9-7" value="&amp;lt;&amp;lt;depends&amp;gt;&amp;gt;" style="endArrow=open;endSize=12;html=1;rounded=0;exitX=0;exitY=0.5;exitDx=0;exitDy=0;entryX=1;entryY=1;entryDx=0;entryDy=0;dashed=1;" edge="1" parent="1" source="qWz3FeGwX53EBjCBNTv4-22" target="4O6SfjmouDbTsM4zHaP9-6">
          <mxGeometry width="160" relative="1" as="geometry">
            <mxPoint x="629" y="202" as="sourcePoint" />
            <mxPoint x="721" y="358" as="targetPoint" />
          </mxGeometry>
        </mxCell>
        <mxCell id="qWz3FeGwX53EBjCBNTv4-20" value="Postar na comunidade" style="ellipse;whiteSpace=wrap;html=1;" parent="1" vertex="1">
          <mxGeometry x="580" y="340" width="80" height="50" as="geometry" />
        </mxCell>
        <mxCell id="4O6SfjmouDbTsM4zHaP9-51" value="Acessar Perfil" style="ellipse;whiteSpace=wrap;html=1;" vertex="1" parent="1">
          <mxGeometry x="1120" y="300" width="80" height="50" as="geometry" />
        </mxCell>
        <mxCell id="4O6SfjmouDbTsM4zHaP9-52" value="&amp;lt;&amp;lt;use&amp;gt;&amp;gt;" style="endArrow=open;endSize=12;html=1;rounded=0;entryX=0.191;entryY=1.001;entryDx=0;entryDy=0;exitX=1;exitY=0.5;exitDx=0;exitDy=0;entryPerimeter=0;" edge="1" parent="1" source="qWz3FeGwX53EBjCBNTv4-17" target="4O6SfjmouDbTsM4zHaP9-51">
          <mxGeometry x="-0.003" width="160" relative="1" as="geometry">
            <mxPoint x="490" y="445" as="sourcePoint" />
            <mxPoint x="1010" y="445" as="targetPoint" />
            <mxPoint as="offset" />
          </mxGeometry>
        </mxCell>
      </root>
    </mxGraphModel>
  </diagram>
</mxfile>
